<?xml version="1.0" standalone="no"?>
<!DOCTYPE svg PUBLIC "-//W3C//DTD SVG 20010904//EN"
 "http://www.w3.org/TR/2001/REC-SVG-20010904/DTD/svg10.dtd">
<svg version="1.0" xmlns="http://www.w3.org/2000/svg"
 width="432.000000pt" height="432.000000pt" viewBox="0 0 432.000000 432.000000"
 preserveAspectRatio="xMidYMid meet">
<metadata>
Created by potrace 1.14, written by Peter Selinger 2001-2017
</metadata>
<g transform="translate(0.000000,432.000000) scale(0.100000,-0.100000)"
fill="#000000" stroke="none">
<path d="M1945 3537 l-210 -122 0 -255 0 -254 120 -69 c66 -38 136 -78 155
-89 19 -11 59 -33 88 -50 28 -16 52 -34 52 -39 0 -5 -21 -20 -47 -34 -27 -14
-120 -67 -208 -118 l-160 -93 -3 -248 c-2 -228 -4 -247 -19 -241 -37 14 -403
230 -403 238 0 4 8 10 18 14 9 3 28 14 42 23 14 10 45 28 70 42 139 77 281
161 286 169 3 5 -2 9 -10 9 -23 0 -21 466 2 479 16 9 20 6 -272 175 l-150 85
-30 -18 c-71 -42 -228 -132 -328 -188 -63 -35 -68 -41 -69 -73 -1 -19 -2 -133
-2 -252 0 -120 -3 -218 -5 -218 -2 0 -16 8 -30 18 -15 10 -111 67 -213 125
l-187 107 -213 -123 -214 -123 -3 -251 -2 -251 167 -98 c93 -53 191 -110 218
-124 l50 -28 205 118 c113 65 210 127 215 137 6 11 10 115 9 251 0 132 3 232
9 232 12 0 417 -233 417 -240 0 -4 -193 -118 -368 -217 l-56 -31 -1 -249 0
-248 139 -82 c76 -46 139 -83 140 -83 2 0 37 -20 80 -44 l77 -44 190 109 c104
60 201 116 214 125 l25 16 0 249 c0 137 3 249 6 249 3 0 18 -8 32 -19 30 -20
210 -125 257 -149 17 -9 54 -31 84 -50 l53 -34 -43 -25 c-24 -14 -62 -35 -84
-48 -22 -12 -98 -56 -170 -98 l-130 -75 -3 -250 -2 -250 132 -78 c73 -42 158
-90 188 -107 30 -17 68 -39 84 -48 34 -21 5 -34 301 137 l160 93 0 250 c0 247
0 249 20 239 11 -6 109 -62 217 -125 l198 -114 192 112 c106 61 203 118 216
126 22 13 22 15 22 258 0 135 2 245 5 245 2 0 97 -54 211 -120 l207 -120 36
21 c34 20 52 31 134 78 17 10 56 32 85 50 29 17 55 31 58 31 3 0 25 14 49 30
24 17 48 30 54 30 6 0 11 15 12 33 0 44 1 415 0 452 -1 26 -9 34 -54 59 -28
16 -125 71 -214 123 l-161 94 -49 -29 c-26 -15 -55 -31 -63 -35 -8 -4 -82 -46
-165 -95 l-150 -88 -3 -247 c-1 -136 -4 -247 -6 -247 -3 0 -44 23 -93 51 -127
74 -179 104 -255 147 -38 20 -68 40 -68 44 0 6 55 40 170 106 19 10 82 46 140
79 l105 60 0 249 c1 239 0 250 -20 265 -16 13 -188 112 -245 142 -8 4 -49 27
-90 52 l-75 44 -50 -28 c-27 -15 -108 -61 -180 -102 -71 -42 -141 -82 -155
-90 -14 -8 -28 -18 -31 -22 -3 -4 -10 -2 -16 5 -12 15 -12 472 -1 484 6 5
-413 256 -424 254 -2 -1 -97 -56 -213 -123z m609 -398 c-1 -135 -5 -234 -11
-236 -5 -2 -65 -36 -134 -76 -202 -118 -238 -137 -242 -129 -2 4 -4 108 -4
232 0 170 3 227 13 237 7 7 14 13 17 13 2 0 71 39 153 86 184 108 196 114 203
109 3 -1 5 -108 5 -236z m24 -598 l-3 -118 -202 116 c-112 64 -203 119 -203
123 0 3 33 25 73 47 67 38 121 69 207 118 19 11 55 32 80 47 l45 25 3 -119 c1
-66 1 -173 0 -239z m847 115 l0 -235 -194 -113 c-107 -62 -200 -114 -206 -116
-7 -2 -10 70 -10 233 l0 235 200 115 c110 63 202 115 205 115 3 0 5 -106 5
-234z m-1742 -18 l0 -233 -79 -46 c-212 -123 -292 -169 -298 -169 -4 0 -5 106
-4 236 l3 237 185 107 c102 59 187 106 189 104 1 -1 3 -108 4 -236z m-838
-473 c-1 -193 -3 -238 -15 -248 -15 -14 -384 -227 -393 -227 -6 0 -3 467 3
473 3 2 79 47 170 100 199 114 235 135 235 136 0 1 0 -105 0 -234z m1965 114
l211 -122 -104 -61 c-57 -33 -151 -88 -210 -121 -58 -33 -107 -67 -109 -75 -2
-8 -4 -120 -3 -247 0 -128 -3 -233 -7 -233 -7 0 -131 69 -256 142 -26 16 -73
42 -104 60 -32 18 -58 35 -58 38 0 3 43 30 96 60 53 30 119 69 148 85 28 17
79 46 114 65 34 19 62 41 62 48 0 7 -4 11 -8 8 -5 -3 -9 103 -8 234 0 186 3
240 13 240 7 0 107 -55 223 -121z m1480 -123 l0 -234 -37 -24 c-101 -62 -359
-206 -364 -202 -3 2 -6 107 -5 234 l1 231 195 114 c107 63 198 114 203 115 4
0 7 -105 7 -234z m-1736 -16 l1 -229 -125 -73 c-69 -39 -154 -89 -189 -110
-34 -21 -66 -38 -70 -38 -4 0 -7 106 -7 235 l1 236 190 109 c104 60 191 107
194 104 2 -2 5 -107 5 -234z m-844 -480 l0 -239 -42 -24 c-24 -14 -113 -66
-200 -116 -86 -50 -159 -91 -162 -91 -3 0 -6 106 -6 235 0 232 0 235 23 248
12 8 87 51 167 97 80 46 161 93 180 106 19 13 36 23 38 23 1 1 2 -107 2 -239z
m1729 -4 l-1 -235 -91 -54 c-51 -30 -109 -64 -129 -76 -91 -51 -109 -61 -148
-86 l-40 -25 2 241 3 242 120 68 c66 38 127 74 135 79 8 6 29 17 45 25 17 8
44 23 60 35 17 11 33 20 37 20 4 0 7 -105 7 -234z m-864 -496 c0 -191 -3 -232
-15 -243 -16 -15 -307 -187 -316 -187 -3 0 -19 -9 -36 -21 -16 -12 -32 -18
-36 -14 -4 3 -7 109 -7 235 l-1 229 196 114 c107 63 200 116 205 116 7 1 10
-79 10 -229z"/>
</g>
</svg>
